<svg width="20" height="20" viewBox="0 0 20 20" fill="none" xmlns="http://www.w3.org/2000/svg">
<path fill-rule="evenodd" clip-rule="evenodd" d="M13.8821 4.78887C14.2284 5.09194 14.2635 5.61841 13.9605 5.96477C13.6574 6.31114 13.1309 6.34623 12.7846 6.04316L10.8333 4.33582V12.4993C10.8333 12.9596 10.4602 13.3327 10 13.3327C9.53976 13.3327 9.16666 12.9596 9.16666 12.4993V4.33582L7.21542 6.04316C6.86905 6.34623 6.34259 6.31114 6.03952 5.96477C5.73645 5.61841 5.77155 5.09194 6.11791 4.78887L9.45124 1.8722C9.76543 1.59729 10.2346 1.59729 10.5488 1.8722L13.8821 4.78887ZM3.33333 14.166C3.33333 13.7058 2.96023 13.3327 2.5 13.3327C2.03976 13.3327 1.66666 13.7058 1.66666 14.166V16.666C1.66666 17.5865 2.41286 18.3327 3.33333 18.3327H16.6667C17.5871 18.3327 18.3333 17.5865 18.3333 16.666V14.166C18.3333 13.7058 17.9602 13.3327 17.5 13.3327C17.0398 13.3327 16.6667 13.7058 16.6667 14.166V16.666H3.33333V14.166Z" fill="#FFCD00"/>
<path d="M2.5 15.4173V9.33399C2.5 8.7817 2.94772 8.33398 3.5 8.33398H6.25" stroke="#FFCD00" stroke-width="2" stroke-linecap="round"/>
<path d="M17.5 15.0007V9.33398C17.5 8.7817 17.0523 8.33398 16.5 8.33398H14.1667" stroke="#FFCD00" stroke-width="2" stroke-linecap="round"/>
</svg>
