<svg width="36" height="36" viewBox="0 0 36 36" fill="none" xmlns="http://www.w3.org/2000/svg">
<circle cx="18" cy="18" r="18" fill="#FFCD00"/>
<path fill-rule="evenodd" clip-rule="evenodd" d="M8.28098 10.305C8.56086 10.0155 8.98712 9.92207 9.36245 10.068L27.3624 17.068C27.7468 17.2175 28 17.5876 28 18C28 18.4124 27.7468 18.7826 27.3624 18.932L9.36245 25.932C8.98712 26.078 8.56086 25.9846 8.28098 25.695C8.0011 25.4055 7.92222 24.9763 8.08086 24.6061L10.912 18L8.08086 11.394C7.92222 11.0238 8.0011 10.5946 8.28098 10.305ZM12.6594 19L10.8574 23.2048L21.6695 19H12.6594ZM21.6695 17H12.6594L10.8574 12.7953L21.6695 17Z" fill="#1E1E1E"/>
</svg>
