<svg width="36" height="36" viewBox="0 0 36 36" fill="none" xmlns="http://www.w3.org/2000/svg">
<circle cx="18" cy="18" r="18" fill="#EDE9EF"/>
<path fill-rule="evenodd" clip-rule="evenodd" d="M8.281 10.305C8.56088 10.0155 8.98714 9.92204 9.36247 10.068L27.3625 17.068C27.7468 17.2175 28 17.5876 28 18C28 18.4124 27.7468 18.7825 27.3625 18.932L9.36247 25.932C8.98714 26.078 8.56088 25.9845 8.281 25.695C8.00112 25.4054 7.92224 24.9762 8.08088 24.6061L10.9121 18L8.08088 11.3939C7.92224 11.0238 8.00112 10.5946 8.281 10.305ZM12.6594 19L10.8574 23.2047L21.6696 19H12.6594ZM21.6696 17H12.6594L10.8574 12.7953L21.6696 17Z" fill="#1D0A2C"/>
</svg>
