<svg width="24" height="24" viewBox="0 0 24 24" fill="none" xmlns="http://www.w3.org/2000/svg">
<path fill-rule="evenodd" clip-rule="evenodd" d="M2 15V6C2 4.34315 3.34315 3 5 3H19C20.6569 3 22 4.34315 22 6V15C22 16.6569 20.6569 18 19 18H14.7515L12.1463 20.2796C10.5298 21.694 8 20.546 8 18.3981V18H5C3.34315 18 2 16.6569 2 15ZM9.76118 17.0514C9.42328 16.4254 8.76132 16 8 16H5C4.44772 16 4 15.5523 4 15V6C4 5.44772 4.44772 5 5 5H19C19.5523 5 20 5.44772 20 6V15C20 15.5523 19.5523 16 19 16H14.7515C14.267 16 13.799 16.1758 13.4345 16.4948L11.9927 17.7564L11.8964 17.8407L11.7143 18L11.2593 18.3981L10.8293 18.7744C10.506 19.0573 10 18.8277 10 18.3981V18C10 17.9384 9.99722 17.8775 9.99177 17.8173C9.96792 17.554 9.89306 17.3055 9.77716 17.0817L9.76118 17.0514ZM7.49809 12.56C8.40409 12.56 9.04009 12.092 9.04009 11.258V11.246C9.04009 10.514 8.56009 10.208 7.70809 9.986C6.98209 9.8 6.80209 9.71 6.80209 9.434V9.422C6.80209 9.218 6.98809 9.056 7.34209 9.056C7.63009 9.056 7.91809 9.158 8.22409 9.338C8.29609 9.38 8.36809 9.404 8.45809 9.404C8.69809 9.404 8.89009 9.218 8.89009 8.978C8.89009 8.798 8.78809 8.672 8.68609 8.612C8.30809 8.372 7.86409 8.24 7.35409 8.24C6.49609 8.24 5.88409 8.744 5.88409 9.506V9.518C5.88409 10.352 6.43009 10.586 7.27609 10.802C7.97809 10.982 8.12209 11.102 8.12209 11.336V11.348C8.12209 11.594 7.89409 11.744 7.51609 11.744C7.10809 11.744 6.76009 11.6 6.44209 11.366C6.38209 11.324 6.29809 11.282 6.17809 11.282C5.93809 11.282 5.74609 11.468 5.74609 11.708C5.74609 11.852 5.81809 11.984 5.92009 12.056C6.38809 12.392 6.94609 12.56 7.49809 12.56ZM9.96198 12.086C9.96198 12.338 10.16 12.536 10.412 12.536C10.664 12.536 10.868 12.338 10.868 12.086V9.998L11.666 11.228C11.762 11.372 11.882 11.462 12.05 11.462C12.218 11.462 12.338 11.372 12.434 11.228L13.244 9.98V12.074C13.244 12.326 13.448 12.536 13.7 12.536C13.958 12.536 14.162 12.332 14.162 12.074V8.738C14.162 8.48 13.958 8.276 13.7 8.276H13.598C13.412 8.276 13.28 8.354 13.184 8.51L12.062 10.334L10.946 8.516C10.862 8.378 10.724 8.276 10.526 8.276H10.424C10.166 8.276 9.96198 8.48 9.96198 8.738V12.086ZM16.785 12.56C17.691 12.56 18.327 12.092 18.327 11.258V11.246C18.327 10.514 17.847 10.208 16.995 9.986C16.269 9.8 16.089 9.71 16.089 9.434V9.422C16.089 9.218 16.275 9.056 16.629 9.056C16.917 9.056 17.205 9.158 17.511 9.338C17.583 9.38 17.655 9.404 17.745 9.404C17.985 9.404 18.177 9.218 18.177 8.978C18.177 8.798 18.075 8.672 17.973 8.612C17.595 8.372 17.151 8.24 16.641 8.24C15.783 8.24 15.171 8.744 15.171 9.506V9.518C15.171 10.352 15.717 10.586 16.563 10.802C17.265 10.982 17.409 11.102 17.409 11.336V11.348C17.409 11.594 17.181 11.744 16.803 11.744C16.395 11.744 16.047 11.6 15.729 11.366C15.669 11.324 15.585 11.282 15.465 11.282C15.225 11.282 15.033 11.468 15.033 11.708C15.033 11.852 15.105 11.984 15.207 12.056C15.675 12.392 16.233 12.56 16.785 12.56Z" fill="black"/>
</svg>
