<svg width="24" height="24" viewBox="0 0 24 24" fill="none" xmlns="http://www.w3.org/2000/svg">
<path fill-rule="evenodd" clip-rule="evenodd" d="M9 6C9 3.79086 10.7909 2 13 2H16C16.5523 2 17 2.44772 17 3V6C17 6.55228 16.5523 7 16 7H14V8H16.5C16.794 8 17.073 8.12933 17.263 8.35363C17.453 8.57792 17.5347 8.87445 17.4864 9.1644L16.9864 12.1644C16.906 12.6466 16.4888 13 16 13H14V21C14 21.5523 13.5523 22 13 22H10C9.44772 22 9 21.5523 9 21V13H8C7.44772 13 7 12.5523 7 12V9C7 8.44772 7.44772 8 8 8H9V6ZM9 10V11H10C10.5523 11 11 11.4477 11 12V20H12V12C12 11.4477 12.4477 11 13 11H15.1529L15.3195 10H13C12.4477 10 12 9.55228 12 9V6C12 5.44772 12.4477 5 13 5H15V4H13C11.8954 4 11 4.89543 11 6V9C11 9.55228 10.5523 10 10 10H9Z" fill="black"/>
</svg>
